# xmcd
#
# Track frame offsets: 
#        150
#        19387
#        41145
#        59291
#        78710
#        94656
#        117086
#        132436
#        160716
#        175776
#        196566
#        213268
#
# Disc length: 3149 seconds
#
# Revision: 0
# Processed by: cddbd v1.4PL0 Copyright (c) Steve Scherf et al.
# Submitted via: ExactAudioCopy v0.95a3
#
DISCID=9b0c4b0c
DTITLE=Bondi Cigars - 12 Lies
DYEAR=2003
DGENRE=Blues
TTITLE0=Tell me what I need to know
TTITLE1=Some other man
TTITLE2=Raging thirst
TTITLE3=Everybody do the second line
TTITLE4=I've been trying
TTITLE5=I won't lay down with the devil
TTITLE6=The edge of the dirty river
TTITLE7=Talking Tombstone
TTITLE8=You soon will be
TTITLE9=She shakes me to the bone
TTITLE10=More light then I can stand
TTITLE11=Junkie for the past
EXTD=Frank Corby - Drums, Percussion and Backing Vocals\nEben Hale - E
EXTD=lectric Guitar, Acoustic Guitar, Vocals, Backing Vocals, Percussi
EXTD=on\nShane Pacey - Electric Guitar, Acoustic Guitar, Slide and Res
EXTD=onator Guitar, Vocals and Backing Vocals\nAlan Britton - Electric
EXTD=Bass, String Bass, Backing Vocals and Percussion
EXTT0=
EXTT1=
EXTT2=
EXTT3=
EXTT4=
EXTT5=
EXTT6=
EXTT7=
EXTT8=
EXTT9=
EXTT10=
EXTT11=
PLAYORDER=
